P1
# Created by GIMP version 2.10.18 PNM plug-in
130 24
0000000000000000000000000000000000000000000000000000000000000000000000
0000000000000000000000000000000000000000000000000000000000000000010000
0000000010000000010000000100000010000010100000110000000000000000000000
0000000000000000100000000000000000000000000000000000000100000000000010
0000001010000001000000000000001000000100000000000000000000000000000000
0000001000000000000000000000000000000000011101110001100011100110001000
0111011100011000001010100001001010011100011001110001110111000111011100
1001001010100101001010010111101001010010100001001010110111001001010010
0010000010110000010011110100101001010010100101001011000010001001001010
1001001100100100010010110100101000010010110000100001100100100010000010
1010000100100101001010010100101001010000001100100010010010101111001100
0101001000010101110001100011100110001000100001001001110010101001001110
1001010010011001110001110100001110000110011100010011110100100010011110
0000000000000000000000000000000111000000000000010000000000000000000000
0000010000000100000000000000000000000000000000000001000000000000000000
0000000000000000000000000000000000000000000000000000000000000000000000
0000000000000000000000000000000000000000000000000001100111000110011100
1111011110011001001001110000101001010000100101001001100111000110011100
0110001110100101001010010100100101011110100101001010010100101000010000
1001010010001000001010100100001111011010100101001010010100101001000100
1001010010100101001001010000101001011100100001001011100111001000011110
0010000010110001000011110110101001010010100101001001000001001001010010
1001001100010100010011110100101000010010100001000010110100100010000010
1100010000100101011010010111001001011100001000010010010100101111001100
0010001000100101001010010100101000010000100101001000100100101010010000
1001010110100101000011010101001001000100100100110011110100100010010000
1001011100011001110011110100000111010010011100110010010111101001010010
0110010000011001001001100001000110001100100101001000100111100000000000
0000000000000000000000000000000000000000000000000000000000000000000000
0001000000000000000000000000000000000000000000000000000000000000000000
0000000000000000000000000000000000000000000000000000000000000000000000
0000000000000000000000000000000000000000001000010001100111100010011110
0110011110011000110000000000000000000000001000000000100001000010001000
0010000000000000000000000000000101001100100100001001100100001000000010
1001010010000000110000000011000100001010001000101000100001000010000000
0000000000000000000001010001000001001100101001110011100001000110010010
0000001100000000110001000001000010000010001000010001000000000000000000
0000000000010100010000100000101111000010100100010010010011100000000000
0000000000010000111000100001000000000100010001110000000000000000000000
0101000100010001001000100100101001001000100100001001100011000011001100
0100000100000000000000000001001000000000000000000000000000000010001110
1111001100001000110001100010000110001100011000110000100010000010001010
0010000100000000100010000000000000000000000000000000000000000000000000
0000000000000000000000000000000000000000010001000000000000000000000000
0000000000000000000000000000000000000000