P1
# Created by GIMP version 2.10.18 PNM plug-in
260 48
0000000000110000000000000000000000001100000000000000011110000000000000
1100000000000000000000000000001100000000011110000000000000000000000000
0000000000000000000000000000000000000000000000000000000000000000000000
0000000000000000000000000000000000000000000000000000000000001100000000
0000000000000000110000000000000011001100000000000011000000000000000000
0000000000110000000000011000000000000000000000000000000000000000000000
0000000000000000000000000000000000000000000000000000000000000000000000
0000000000000000000000000000000000000000110000000000000000000000001100
0000000000001100110000000000001100000000000110000000000011001100000000
0001100000000000000000000000000000000000000000000000000000000000000000
0000000000001100000000000000000000000000000000000000000000000000000000
0000000000000000000011000000000000000000000000110000000000000011000000
0000000000110000000000011000000000001100110000000000011000000000000000
0000000000000000000000000000000000000000000000000000000000000011000000
0000000000000000000000000000000000000000000000000000000000000000000000
1100000000000000000000000011000000000000001100000000000000001100000000
0000000000000000000011000000000001100000000000000000000000000000000000
0000000000000000000000000000000000000000001100000000000000000000000000
0000000000000000000000000000000000000000001111100011011100000011111000
0011101100001111000011111100000111110100110111000001111000000000111100
1100011000000110000010110110001101110000001111000011011100000011101100
1101111000011111100011111100001100001100110000110011000011001100001100
1100001100011111110001100011001110011000011000110001100111000110011000
0011000000110001110011100110000001100000000000110011001100000001100000
1111111100111001100001100110001110011000011001110001110011001100001100
0011000000110000110011000011001100001100011001100011000011000000001100
0000001100110000110011000000001100001100110000110000110000001100011000
1100001100000110000000000011001101100000000110000011011011001100001100
1100001100110000110011000011000110000000110000000000110000001100001100
0110011000110000110000111100001100001100000001100001111111001100001100
1100000000110000110011111111000011000000110001100011000011000001100000
0000001100111100000000011000001101101100110000110011000011001100001100
1100001100011000000001111110000011000000110000110001100110001101101100
0001100000110000110000001100001100001100110000110011000000001100001100
1100000000001100000011000110001100001100000110000000000011001111100000
0001100000110110110011000011001100001100110000110011000011000110000000
0000001100001100000011000011000011110000110110110000011000001100001100
0001100000110000110011000011001100000000110000110011000000000011000000
0111110000110000110000011000000000001100110011000000011000001101101100
1100001100110000110011000011001100001100011000000000000011000011000000
1100001100001111000011011011000011110000110000110000110000001100001100
1110011000011000110001100111000110001100001100000011000000001100001100
0001100000000000110011000110000001100000110110110011000011000110011000
1110011000011001110001100000001100001100001100110001100111000001100000
1111111100011001100001100111000110000000011111010011011100000011111000
0011101100001111100000110000000111111000110000110011111111000110001100
1100001100111111110011011011001100001100001111000011011100000011101100
0110000000011111100000011110000011101100000110000001100110001100001100
0011101100011111110000000000000000000000000000000000000000000000000000
0000000000110000110000000000000000000000011000110000000000000000000000
0000000000000000000000000000001100000000000000110000000000000000000000
0000000000000000000000000000000000000000000000000000000011000000000000
0000000000000000000000000000000000000000000000000000000000001100001100
0000000000000000000001100011000000000000000000000000000000000000000000
0000000000110000000000000011000000000000000000000000000000000000000000
0000000000000000000000000000000110011000000000000000000000000000000000
0000000000000000000000000000000000000000011111100000000000000000000000
0011111000000000000000000000000000000000000000000000000000001100000000
0000001100000000000000000000000000000000000000000000000000000000000000
0000000000001111000000000000000000000000000000000000000000000000000000
0000000000000000000000000000000000000000000000000000000000000000000000
0000000000000000000000000000000000000000000000000000000000000000000000
0000000000000000000000000000000000000000000000000000000000000000000000
0000000000000000000000000000000000000000000000000000000000000000000000
0000000000000000000000000000000000000000000000000000000000000000000000
0000000000000000000000000000000000000000000000000000000000000000000000
0000000000000000000000000000000000000000000000000000000000000001100000
1111100000001111000011111100001111111100111111110000111100001100001100
1111111100000111111011000011001100000000110000110011000011000011110000
1111110000001111000011111100000011110000111111110011000011001100001100
1100001100110000110011000011001111111100001111000011001100000110011000
1100011000110000000011000000000110011000110000110000011000000000011000
1100001100110000000011000011001110001100011001100011000110000110011000
1100011000011001100000011000001100001100110000110011000011001100001100
1100001100000000110001100110001100011000110000110011000011001100000000
1100000000110000110011000011000001100000000001100011000110001100000000
1110011100111000110011000011001100001100110000110011000011001100001100
0001100000110000110011000011001100001100011001100001100110000000001100
0110011000110001100011000000001100001100110000000011000000001100000000
1100001100000110000000000110001100011000110000000011100111001111001100
1100001100110000110011000011001100001100110000000000011000001100001100
1100001100110000110001100110000110011000000001100011000011001100011000
1100000000110000110011000000001100000000110000000011000011000001100000
0000011000110011000011000000001111111100111100110011000011001100001100
1100001100110000110011000000000001100000110000110001100110001100001100
0011110000001111000000001100001100001100110011000011000000001100001100
1100000000110000000011000000001100001100000110000000000110001100110000
1100000000110110110011011011001100001100110000110011000011001100001100
0110000000000110000011000011000110011000110110110000111100000011110000
0000110000110000110011111100001100000000110000110011111100001111110000
1100111100111111110000011000000000011000111110000011000000001101101100
1101101100110000110011000110001100001100110001100000111100000001100000
1100001100011001100011011011000001100000000110000000011000001111111100
1100011000110000000011000011001100000000110000000011000011001100001100
0001100000000001100011001100001100000000110110110011001111001100001100
1111110000110000110011111100000000011000000110000011000011000011110000
1101101100001111000000011000000011000000110000110011000011001100000000
1100001100110000000011000000001100001100110000110000011000000000011000
1100110000110000000011011011001100111100110000110011000000001100001100
1100110000000000110000011000001100001100001111000011011011000011110000
0001100000001100000011000011001100001100110000000011000011001100000000
1100000000110000110011000011000001100000110001100011000110001100000000
1100001100110001110011000011001100000000110110110011000110000000001100
0001100000110000110000111100001110011100011001100000011000000110000000
1100001100110000110011000011001100001100110000000011000000001100001100
1100001100000110000011000110001100011000110000000011000011001100011100
1100001100110000000011001111001100011000110000110000011000001100001100
0001100000111001110001100110000001100000110000000011000011001100011000
0110011000110001100011000000001100000000011001110011000011000001100000
0110110000110000110011000000001100001100110000110001100110001100000000
0110011000110000110001100110000001100000011001100000011000001100001100
1100001100000110000011000000001100001100111111000000111100001111110000
1111111100110000000000111101001100001100111111110000111000001100001100
1111111100110000110011000011000011110000110000000000111110001100001100
0011110000000110000000111100000001100000110000110011000011000001100000
1111111100000000000000000000000000000000000000000000000000000000000000
0000000000000000000000000000000000000000000000000000000000000000000000
0000000000000000000000000000000000001100000000000000000000000000000000
0000000000000000000000000000000000000000000000000000000000000000000000
0000000000000000000000000000000000000000000000000000000000000000000000
0000000000000000000000000000000000000000000000000000000000000000000000
0000000000000000000000000000000000000000000000000000000000000000000000
0000000000000000000000000000000000000000000000000000000000000000000000
0000000000000000000000000000000000000000000000000000000000000000000000
0000000000000000000000000000000000000000000000000000000000000000000000
0000000000000000000000000000000000000000000000000000000000000000000000
0000000000000000000000011000000001100000001111000000111100000000001000
1111111100001111000011111111000011110000001111000000000000000000000000
0000000000000000000000000110000000000000000110000000111100000001100000
0110000000000011000000000000000000000000000000000000000000000000000000
0011110000001110000001100110000110011000000001100011000000000110011000
0000001100011001100001100110000000000000000000000000000000000000000000
0000110000000000000000011000000110011000000110000000110000000000110000
0000000000000000000000000000000000000000000000000001100110000111100000
1100001100110000110000001110001100000000110000100000000011001100001100
1100001100000000000000000000000000000000000000000000011000000000000000
0001100000110000110000011000000001100000000011000000000000000000000000
0000000000000000000000000000000110011000110110000011000011001100001100
0001111000110000000011000000000000011000110000110011000011000000000000
0000000000000000000000000000000001100000011001100000011000001100001100
0001100000000110000000001100000000000000000000000000000000000000000000
0000000000110000110000011000000000001100000000110000110110001100000000
1100000000000001100011000011001100001100000000000000000000000000000000
0000000000001100000001100110000001100000110000110000010000000000110000
0001100000000000000000000000000000000000000000000000000000001100001100
0001100000000000110000000110000110011000110111000011011100000000110000
0110011000110000110000000000000001110000000000000000011100000011000000
0011110000000110000000000110000000000000000011000000011000000000000000
0000000000000000000000000000000000000000110000110000011000000000011000
0001110000110001100011100110001110011000000011000000111100000110011100
0000000000000111000000000000000001110000001100000011111111000001100000
0000110000000000000000001100000001100000011111100000000000000000000000
0000000000000000000011000011000001100000000111000000000110001100011000
0000001100110000110000011000000110011000001110110000000000000000000000
0000000000000000000000110000000011110000000110000000011000000000000000
0000110000001100000001111110000000000000000000000000000000000000000000
1100001100000110000000110000000000001100111111110000000011001100001100
0001100000110000110000000011000000000000000000000000000000000000000000
0011000000011001100000011000000001100000000000000000001100000011000000
0000000000000000000000000000000000000000000000000001100110000001100000
0110000000110000110000000110000000001100110000110000110000001100001100
0000001100000000000000000000000000000000000000000000011000000110011000
0001100000000110000000000000000001100000001100000000000000000000000000
0000000000000000000000000000000110011000000110000011000000001100001100
0000011000110000110011000011000011000000110000110001000011000001110000
0000000000000000000000000000000001100000000000000000000000000000000000
0000000000000110000001100000000000000000000000000000000000000000000000
0000000000001111000000011000001100000000011001100000000110000110011000
0110011000011000000001100110000110011000000111000000011100000001110000
0001110000000011000000000000000001100000000110000000000000000011000000
0110000000000000000000000000000000000000000000000000000000000001100000
1111111100111111110000111100000000011000001111000000111100000110000000
0011110000001111000000011100000001110000000111000000011100000000011000
0000000000000110000000011000000000000000011000000001100000000000000000
0000000000000000000000000000000000000000000000000000000000000000000000
0000000000000000000000000000000000000000000000000000000000000000000000
0000000000000000000000111000000011100000000000000000000000000000000000
0000000000000000000000000000000000000000000000000000000000000000000000
00000000000000000000