P1
# Created by GIMP version 2.10.18 PNM plug-in
104 24
0000000000000000000000000000000000000000000000000000000000000000000000
0000000000000000000000000000000000000010000000001000000010000010000100
0010100011000000000000000000000000000000010000000000000000000000000001
1011000110011001000100011011000000000010100100101011000100110001101010
0110111010101010101010101010111010101010100010101010111010101010110000
1011000100111010101010101010101100110001001010101010100100101000101010
1010100010101100010001101010010000101010010010101010101011001010100000
1001001010101011100100011001000110110001100110011001000010101011100010
1010111010101010010010000110100011000010011001001010101000101110000000
0000000000000000001100000000001100000000000000000000001000001000000000
0000000000000000000011000000000000000000000000000000000000000000000000
0000000000000000000000000000000000000000000000000000000000000000000000
0000000000000000000000000000000000000000000000000000000000000000000000
0000000000000000000000000001001100010011001110111001101010111000101010
1000101000100100110001001100011011101010101010101010101011101010101010
1010101000100010001010010000101010100011101010101010101010101010000100
1010101010101010101000101110110010001010110011001010111001000010110010
0011101110101011001010110001000100101010101110010001000100101010101010
1010100010001010101001001010101010001010101010101000101010100010010010
1011101110101001001000101011000100110011101000011010101110010010101110
1010100001001000010010101100010011100100101010100100111000000000000000
0000000000000000000000000000000000000000000000000000100000000000000000
0000000000000000000000000000000000000000000000000000000000000000000000
0000000000000000000000000000000000000000000000000000000000000000000000
0000000000000000000000000000000000000000000000000000000000000000000000
0000000000000000000100010001001110101011100110111001100100000000000000
0000001010100100110001001000001000000000000000000000101011001010001010
1010001000001010101010000001000000010001000100010000100100010000100000
0000000000000000111001000010010011101100110001000100011000000000000000
0001001110010001000000010001000000000000000000000010100100010000100010
0010101010001010001000000000000000000100010000000000000001000100111000
0000000000000001001110111011000010110001001000110011000100010001000100
0100101001000100000001001000000000000000000000000000000000000000000000
0000000000000000000000000010001000001000000000000000001000100000000000
0000000000000000000000000000000000000000000000000000000000000000000000
0000000000000000000000000000000000000000000000